<mxfile host="Electron" modified="2023-12-10T22:04:48.636Z" agent="Mozilla/5.0 (Windows NT 10.0; Win64; x64) AppleWebKit/537.36 (KHTML, like Gecko) draw.io/22.1.2 Chrome/114.0.5735.289 Electron/25.9.4 Safari/537.36" etag="bU9G6CjD8Gvd_cPCfgzy" version="22.1.2" type="device">
  <diagram name="Страница — 1" id="Cs59Z-rDyQvCg04Xde-c">
    <mxGraphModel dx="2385" dy="1643" grid="1" gridSize="10" guides="1" tooltips="1" connect="1" arrows="1" fold="1" page="1" pageScale="1" pageWidth="827" pageHeight="1169" math="0" shadow="0">
      <root>
        <mxCell id="0" />
        <mxCell id="1" parent="0" />
        <mxCell id="hbgOdlHRswtT1gZIVdE_-1" value="" style="rounded=0;whiteSpace=wrap;html=1;" vertex="1" parent="1">
          <mxGeometry x="350" y="310" width="2130" height="1040" as="geometry" />
        </mxCell>
        <mxCell id="hbgOdlHRswtT1gZIVdE_-2" value="&lt;font style=&quot;font-size: 19px;&quot;&gt;&lt;b&gt;deployement&lt;/b&gt; Insurance company&lt;/font&gt;" style="rounded=0;whiteSpace=wrap;html=1;" vertex="1" parent="1">
          <mxGeometry x="350" y="310" width="370" height="70" as="geometry" />
        </mxCell>
        <mxCell id="hbgOdlHRswtT1gZIVdE_-4" value="" style="shape=cube;whiteSpace=wrap;html=1;boundedLbl=1;backgroundOutline=1;darkOpacity=0.05;darkOpacity2=0.1;size=10;" vertex="1" parent="1">
          <mxGeometry x="390" y="430" width="1030" height="900" as="geometry" />
        </mxCell>
        <mxCell id="hbgOdlHRswtT1gZIVdE_-5" value="&amp;lt;&amp;lt;device&amp;gt;&amp;gt; Personal computer" style="text;html=1;strokeColor=none;fillColor=none;align=center;verticalAlign=middle;whiteSpace=wrap;rounded=0;fontSize=17;" vertex="1" parent="1">
          <mxGeometry x="650" y="460" width="290" height="30" as="geometry" />
        </mxCell>
        <mxCell id="hbgOdlHRswtT1gZIVdE_-6" value="" style="shape=cube;whiteSpace=wrap;html=1;boundedLbl=1;backgroundOutline=1;darkOpacity=0.05;darkOpacity2=0.1;size=20;" vertex="1" parent="1">
          <mxGeometry x="425" y="500" width="960" height="810" as="geometry" />
        </mxCell>
        <mxCell id="hbgOdlHRswtT1gZIVdE_-7" value="&lt;font style=&quot;font-size: 25px;&quot;&gt;&lt;div style=&quot;font-size: 25px;&quot;&gt;«OS» Windows&lt;/div&gt;&lt;span style=&quot;font-size: 25px;&quot;&gt;&amp;nbsp;&lt;/span&gt;&lt;/font&gt;" style="text;html=1;strokeColor=none;fillColor=none;align=center;verticalAlign=middle;whiteSpace=wrap;rounded=0;fontSize=25;" vertex="1" parent="1">
          <mxGeometry x="660" y="550" width="510" height="30" as="geometry" />
        </mxCell>
        <mxCell id="hbgOdlHRswtT1gZIVdE_-8" value="" style="shape=cube;whiteSpace=wrap;html=1;boundedLbl=1;backgroundOutline=1;darkOpacity=0.05;darkOpacity2=0.1;size=10;" vertex="1" parent="1">
          <mxGeometry x="1900" y="550" width="410" height="520" as="geometry" />
        </mxCell>
        <mxCell id="hbgOdlHRswtT1gZIVdE_-9" value="&lt;font style=&quot;font-size: 17px;&quot;&gt;&amp;lt;&amp;lt;device&amp;gt;&amp;gt; Windows Server&lt;/font&gt;" style="text;html=1;strokeColor=none;fillColor=none;align=center;verticalAlign=middle;whiteSpace=wrap;rounded=0;" vertex="1" parent="1">
          <mxGeometry x="1950" y="580" width="270" height="30" as="geometry" />
        </mxCell>
        <mxCell id="hbgOdlHRswtT1gZIVdE_-10" value="" style="shape=cube;whiteSpace=wrap;html=1;boundedLbl=1;backgroundOutline=1;darkOpacity=0.05;darkOpacity2=0.1;size=10;" vertex="1" parent="1">
          <mxGeometry x="1930" y="620" width="360" height="400" as="geometry" />
        </mxCell>
        <mxCell id="hbgOdlHRswtT1gZIVdE_-11" value="&lt;font style=&quot;font-size: 17px;&quot;&gt;&amp;lt;&amp;lt;database system&amp;gt;&amp;gt; &lt;br&gt;Microsoft SQL Server 2022&lt;br&gt;&lt;/font&gt;" style="text;html=1;strokeColor=none;fillColor=none;align=center;verticalAlign=middle;whiteSpace=wrap;rounded=0;" vertex="1" parent="1">
          <mxGeometry x="1975" y="650" width="270" height="30" as="geometry" />
        </mxCell>
        <mxCell id="hbgOdlHRswtT1gZIVdE_-12" value="&lt;font style=&quot;font-size: 18px;&quot;&gt;&amp;lt;&amp;lt;schema&amp;gt;&amp;gt;&lt;br&gt;Client&lt;/font&gt;" style="rounded=0;whiteSpace=wrap;html=1;" vertex="1" parent="1">
          <mxGeometry x="1975" y="740" width="265" height="70" as="geometry" />
        </mxCell>
        <mxCell id="hbgOdlHRswtT1gZIVdE_-13" value="&lt;font style=&quot;font-size: 18px;&quot;&gt;&amp;lt;&amp;lt;schema&amp;gt;&amp;gt;&lt;br&gt;Insurance_Agent&lt;/font&gt;" style="rounded=0;whiteSpace=wrap;html=1;" vertex="1" parent="1">
          <mxGeometry x="1977.5" y="890" width="265" height="70" as="geometry" />
        </mxCell>
        <mxCell id="hbgOdlHRswtT1gZIVdE_-14" value="" style="shape=cube;whiteSpace=wrap;html=1;boundedLbl=1;backgroundOutline=1;darkOpacity=0.05;darkOpacity2=0.1;size=20;" vertex="1" parent="1">
          <mxGeometry x="475" y="570" width="860" height="340" as="geometry" />
        </mxCell>
        <mxCell id="hbgOdlHRswtT1gZIVdE_-15" value="" style="endArrow=none;html=1;rounded=0;entryX=0;entryY=0;entryDx=0;entryDy=255;entryPerimeter=0;exitX=0;exitY=0;exitDx=1030;exitDy=375;exitPerimeter=0;" edge="1" parent="1" source="hbgOdlHRswtT1gZIVdE_-4" target="hbgOdlHRswtT1gZIVdE_-8">
          <mxGeometry width="50" height="50" relative="1" as="geometry">
            <mxPoint x="1480" y="600" as="sourcePoint" />
            <mxPoint x="1530" y="550" as="targetPoint" />
          </mxGeometry>
        </mxCell>
        <mxCell id="hbgOdlHRswtT1gZIVdE_-16" value="&amp;lt;&amp;lt;protocol&amp;gt;&amp;gt;&lt;br style=&quot;font-size: 20px;&quot;&gt;TCP/IP" style="text;html=1;strokeColor=none;fillColor=none;align=center;verticalAlign=middle;whiteSpace=wrap;rounded=0;fontSize=20;" vertex="1" parent="1">
          <mxGeometry x="1630" y="760" width="60" height="30" as="geometry" />
        </mxCell>
        <mxCell id="hbgOdlHRswtT1gZIVdE_-17" value="&amp;lt;&amp;lt;executionEnvironment&amp;gt;&amp;gt; &lt;br&gt;Client Application" style="text;html=1;strokeColor=none;fillColor=none;align=center;verticalAlign=middle;whiteSpace=wrap;rounded=0;fontSize=17;" vertex="1" parent="1">
          <mxGeometry x="1000" y="610" width="290" height="30" as="geometry" />
        </mxCell>
        <mxCell id="hbgOdlHRswtT1gZIVdE_-18" value="" style="shape=cube;whiteSpace=wrap;html=1;boundedLbl=1;backgroundOutline=1;darkOpacity=0.05;darkOpacity2=0.1;size=20;" vertex="1" parent="1">
          <mxGeometry x="475" y="930" width="860" height="340" as="geometry" />
        </mxCell>
        <mxCell id="hbgOdlHRswtT1gZIVdE_-19" value="&amp;lt;&amp;lt;executionEnvironment&amp;gt;&amp;gt; &lt;br&gt;Insurance Agent App" style="text;html=1;strokeColor=none;fillColor=none;align=center;verticalAlign=middle;whiteSpace=wrap;rounded=0;fontSize=17;" vertex="1" parent="1">
          <mxGeometry x="920" y="980" width="290" height="30" as="geometry" />
        </mxCell>
        <mxCell id="hbgOdlHRswtT1gZIVdE_-20" value="WorldInvestInsurance.exe" style="rounded=0;whiteSpace=wrap;html=1;" vertex="1" parent="1">
          <mxGeometry x="630" y="640" width="200" height="40" as="geometry" />
        </mxCell>
        <mxCell id="hbgOdlHRswtT1gZIVdE_-21" value="" style="endArrow=classic;html=1;rounded=0;exitX=0.5;exitY=1;exitDx=0;exitDy=0;entryX=0.5;entryY=0;entryDx=0;entryDy=0;endFill=0;" edge="1" parent="1" source="hbgOdlHRswtT1gZIVdE_-20" target="hbgOdlHRswtT1gZIVdE_-22">
          <mxGeometry width="50" height="50" relative="1" as="geometry">
            <mxPoint x="790" y="730" as="sourcePoint" />
            <mxPoint x="840" y="680" as="targetPoint" />
          </mxGeometry>
        </mxCell>
        <mxCell id="hbgOdlHRswtT1gZIVdE_-22" value="InsurancePolicy.pdf&lt;br&gt;InsurancePolicy.html&lt;br&gt;InsurancePolicy.xml" style="rounded=0;whiteSpace=wrap;html=1;" vertex="1" parent="1">
          <mxGeometry x="630" y="750" width="200" height="60" as="geometry" />
        </mxCell>
        <mxCell id="hbgOdlHRswtT1gZIVdE_-23" value="AgentWorldInvestInsurance.exe" style="rounded=0;whiteSpace=wrap;html=1;" vertex="1" parent="1">
          <mxGeometry x="550" y="1010" width="200" height="40" as="geometry" />
        </mxCell>
        <mxCell id="hbgOdlHRswtT1gZIVdE_-24" value="" style="endArrow=classic;html=1;rounded=0;exitX=0.5;exitY=1;exitDx=0;exitDy=0;entryX=0.5;entryY=0;entryDx=0;entryDy=0;endFill=0;" edge="1" parent="1" source="hbgOdlHRswtT1gZIVdE_-23" target="hbgOdlHRswtT1gZIVdE_-25">
          <mxGeometry width="50" height="50" relative="1" as="geometry">
            <mxPoint x="710" y="1100" as="sourcePoint" />
            <mxPoint x="760" y="1050" as="targetPoint" />
          </mxGeometry>
        </mxCell>
        <mxCell id="hbgOdlHRswtT1gZIVdE_-25" value="InsurancePolicy.pdf&lt;br&gt;InsurancePolicy.html&lt;br&gt;InsurancePolicy.xml" style="rounded=0;whiteSpace=wrap;html=1;" vertex="1" parent="1">
          <mxGeometry x="550" y="1120" width="200" height="60" as="geometry" />
        </mxCell>
      </root>
    </mxGraphModel>
  </diagram>
</mxfile>
